# xmcd
#
# Track frame offsets: 
#        150
#        18018
#        49790
#        74336
#        96902
#        115384
#        154455
#        177251
#        202301
#        238780
#        260221
#        293599
#        332838
#        366350
#
# Disc length: 5342 seconds
#
# Revision: 0
# Processed by: cddbd v1.5.2PL0 Copyright (c) Steve Scherf et al.
# Submitted via: ExactAudioCopy v0.95b4
#
DISCID=df14dc0e
DTITLE=Eric Clapton - Just One Night Disc I.II.
DYEAR=1980
DGENRE=Blues
TTITLE0=Tulsa Time
TTITLE1=Early in the Morning
TTITLE2=Lay Down Sally
TTITLE3=Wonderful Tonight
TTITLE4=If I Don't Be There By Morning 
TTITLE5=Worried Life Blues
TTITLE6=All Our Past Times
TTITLE7=After Midnight
TTITLE8=Double Trouble
TTITLE9=Setting Me Up
TTITLE10=Blues Power
TTITLE11=Rambling On My Mind
TTITLE12=Cocaine
TTITLE13=Further On Up the Road
EXTD=
EXTT0=
EXTT1=
EXTT2=
EXTT3=
EXTT4=
EXTT5=
EXTT6=
EXTT7=
EXTT8=
EXTT9=
EXTT10=
EXTT11=
EXTT12=
EXTT13=
PLAYORDER=
